<svg width="36" height="77" viewBox="0 0 36 77" fill="none" xmlns="http://www.w3.org/2000/svg">
<path d="M1 2C1.95776 2.9669 8.1831 10.2186 9.14085 12.6359C10.0986 15.0532 9.14085 18.4373 9.14085 18.4373C9.14085 18.4373 12.5692 23.9354 13.1089 24.9023C12.1512 22.0016 13.4507 14.0863 15.3662 11.1856C15.6701 10.7254 18.7183 21.338 18.2395 24.7222C18.0363 26.158 15.8451 30.5236 17.2817 32.4574C18.7183 34.3912 21.1127 40.6761 21.1127 40.6761C21.1127 40.6761 22.0704 35.3581 29.7324 28.5898C32.1268 40.1926 23.712 47.1005 23.0282 47.4444C22.5493 47.6853 25.9014 61.4999 24.9437 61.948C25.4225 61.4645 28.7747 54.2127 35 50.8286C34.0423 61.4645 32.1268 63.8818 30.2113 65.3321C28.83 66.378 23.0282 69.6832 23.8826 67.7494C24.737 65.8156 21.7997 76.6616 21.1127 75.968C20.6338 75.4846 25.4225 65.8156 24.9437 61.948L23.0282 60.9811C23.0282 60.9811 11.8163 56.9199 11.0563 45.0272C18.2394 48.4113 23.1079 52.5545 24.6132 57.1134C25.4113 59.5307 21.1214 41.643 20.6425 39.7092C20.2708 38.2083 13.4507 38.6349 11.0563 37.292C8.66198 35.949 5.30986 33.4243 5.78873 27.6229C10.0986 29.5567 16.049 31.0071 19.0741 35.8416C18.5952 34.3912 10.0986 19.4042 9.14085 18.4373C7.70423 16.987 2.91546 19.4042 1 2Z" fill="white"/>
<path d="M9.14085 18.4373C9.14085 18.4373 10.0986 15.0532 9.14085 12.6359C8.1831 10.2186 1.95776 2.9669 1 2C2.91546 19.4042 7.70423 16.987 9.14085 18.4373ZM9.14085 18.4373C9.14085 18.4373 12.5692 23.9354 13.1089 24.9023C12.1512 22.0016 13.4507 14.0863 15.3662 11.1856C15.6701 10.7254 18.7183 21.338 18.2394 24.7222C18.0363 26.158 15.8451 30.5236 17.2817 32.4574C18.7183 34.3912 21.1127 40.6761 21.1127 40.6761C21.1127 40.6761 22.0704 35.3581 29.7324 28.5898C32.1268 40.1926 23.712 47.1005 23.0282 47.4444C22.5493 47.6853 25.9014 61.4999 24.9437 61.948M9.14085 18.4373C10.0986 19.4042 18.5952 34.3912 19.0741 35.8416C16.049 31.0071 10.0986 29.5567 5.78873 27.6229C5.30986 33.4243 8.66198 35.949 11.0563 37.292C13.4507 38.6349 20.2708 38.2083 20.6425 39.7092C21.1214 41.643 25.4113 59.5307 24.6132 57.1134C23.1079 52.5545 18.2394 48.4113 11.0563 45.0272C11.8163 56.9199 23.0282 60.9811 23.0282 60.9811M24.9437 61.948C25.4225 61.4645 28.7747 54.2127 35 50.8286C34.0423 61.4645 32.1268 63.8818 30.2113 65.3321C28.83 66.378 23.0282 69.6832 23.8826 67.7494C24.737 65.8156 21.7997 76.6616 21.1127 75.968C20.6338 75.4846 25.4225 65.8156 24.9437 61.948ZM24.9437 61.948L23.0282 60.9811M24.9437 61.948C24.7565 61.8062 23.0282 60.9811 23.0282 60.9811" stroke="#2A2A2A"/>
</svg>
